<?xml version="1.0" encoding="UTF-8" standalone="no"?>
<!DOCTYPE svg PUBLIC "-//W3C//DTD SVG 1.1//EN" "http://www.w3.org/Graphics/SVG/1.1/DTD/svg11.dtd">
<svg width="100%" height="100%" viewBox="0 0 2395 500" version="1.1" xmlns="http://www.w3.org/2000/svg" xmlns:xlink="http://www.w3.org/1999/xlink" xml:space="preserve" xmlns:serif="http://www.serif.com/" style="fill-rule:evenodd;clip-rule:evenodd;stroke-linejoin:round;stroke-miterlimit:2;">
    <g id="Layer_3">
        <g>
            <g>
                <path d="M713.16,412.38C695,412.38 677.52,407.69 660.72,398.3C643.92,388.92 630.14,375.3 619.4,357.44C608.65,339.58 603.28,317.79 603.28,292.06C603.28,266.34 608.65,244.54 619.4,226.68C630.14,208.82 643.92,195.2 660.72,185.82C677.52,176.44 695,171.74 713.16,171.74C729.2,171.74 743.58,174.77 756.29,180.82C769,186.88 780.5,195.35 790.8,206.25L790.8,95C790.8,88.95 792.84,83.95 796.93,80.02C801.02,76.09 805.93,74.12 811.69,74.12C817.44,74.12 822.28,76.09 826.22,80.02C830.15,83.96 832.12,88.95 832.12,95L832.12,389.67C832.12,395.42 830.15,400.27 826.22,404.2C822.28,408.13 817.44,410.1 811.69,410.1C805.94,410.1 801.02,408.13 796.93,404.2C792.84,400.27 790.8,395.42 790.8,389.67L790.8,377.87C780.51,388.77 769.01,397.25 756.29,403.3C743.58,409.35 729.2,412.38 713.16,412.38ZM719.07,373.79C733.9,373.79 747.37,370.54 759.48,364.03C771.58,357.52 782.03,349.43 790.81,339.74L790.81,244.39C782.03,234.71 771.58,226.61 759.48,220.1C747.37,213.59 733.9,210.34 719.07,210.34C697.57,210.34 679.8,217.23 665.72,231C651.64,244.78 644.61,265.13 644.61,292.07C644.61,318.71 651.65,338.99 665.72,352.91C679.79,366.83 697.57,373.79 719.07,373.79ZM924.29,410.11C918.54,410.11 913.69,408.14 909.76,404.21C905.82,400.28 903.86,395.43 903.86,389.68L903.86,194.89C903.86,189.14 905.83,184.22 909.76,180.13C913.69,176.04 918.54,174 924.29,174C930.04,174 934.96,176.04 939.05,180.13C943.14,184.22 945.18,189.14 945.18,194.89L945.18,214.41C953.35,203.51 963.34,193.68 975.15,184.9C986.96,176.12 1000.73,171.73 1016.47,171.73L1018.74,171.73C1024.49,171.73 1029.25,173.7 1033.04,177.63C1036.82,181.57 1038.72,186.41 1038.72,192.16C1038.72,197.91 1036.75,202.6 1032.82,206.24C1028.88,209.87 1023.89,211.69 1017.84,211.69L1015.57,211.69C1000.74,211.69 987.26,215.4 975.16,222.81C963.05,230.23 953.06,239.84 945.19,251.64L945.19,389.67C945.19,395.42 943.15,400.27 939.06,404.2C934.96,408.14 930.04,410.11 924.29,410.11ZM1136.78,412.38C1123.76,412.38 1111.58,409.66 1100.23,404.21C1088.88,398.76 1079.8,390.97 1072.99,380.83C1066.18,370.69 1062.77,358.51 1062.77,344.28C1062.77,322.79 1071.32,305.16 1088.42,291.38C1105.52,277.61 1131.78,270.72 1167.2,270.72L1222.14,270.72L1222.14,267.09C1222.14,246.81 1217.14,232.36 1207.16,223.73C1197.17,215.1 1181.88,210.79 1161.3,210.79C1148.59,210.79 1137.46,211.92 1127.93,214.2C1118.4,216.47 1109.39,218.97 1100.91,221.69C1098.48,222.3 1096.52,222.6 1095.01,222.6C1090.47,222.6 1086.53,220.94 1083.21,217.61C1079.88,214.28 1078.21,210.2 1078.21,205.35C1078.21,197.18 1082.14,191.43 1090.02,188.1C1100.61,183.56 1112.34,179.7 1125.21,176.52C1138.07,173.34 1152.52,171.75 1168.57,171.75C1190.66,171.75 1208.67,176.14 1222.6,184.92C1236.52,193.7 1246.81,204.9 1253.48,218.52C1260.13,232.14 1263.47,246.37 1263.47,261.2L1263.47,389.69C1263.47,395.44 1261.43,400.29 1257.34,404.22C1253.25,408.15 1248.33,410.12 1242.58,410.12C1236.83,410.12 1231.98,408.15 1228.05,404.22C1224.11,400.29 1222.15,395.44 1222.15,389.69L1222.15,377.89C1213.98,386.37 1203.08,394.24 1189.46,401.5C1175.84,408.76 1158.27,412.38 1136.78,412.38ZM1152.22,376.06C1166.44,376.06 1179.76,372.58 1192.18,365.62C1204.59,358.66 1214.58,350.79 1222.15,342.01L1222.15,303.87L1172.66,303.87C1151.47,303.87 1134.75,306.59 1122.49,312.04C1110.23,317.49 1104.1,326.73 1104.1,339.74C1104.1,349.43 1107.51,357.9 1114.32,365.17C1121.12,372.43 1133.75,376.06 1152.22,376.06ZM1440.08,412.38C1418.58,412.38 1398.61,407.61 1380.15,398.08C1361.68,388.54 1346.85,374.77 1335.65,356.76C1324.45,338.75 1318.85,317.19 1318.85,292.06C1318.85,266.63 1324.45,245 1335.65,227.13C1346.85,209.27 1361.68,195.57 1380.15,186.04C1398.61,176.51 1418.59,171.74 1440.08,171.74C1457.94,171.74 1472.84,174.09 1484.8,178.78C1496.75,183.48 1506.52,188.39 1514.09,193.54C1520.14,197.48 1523.17,202.78 1523.17,209.43C1523.17,213.67 1521.5,217.76 1518.17,221.69C1514.84,225.63 1510.75,227.59 1505.91,227.59C1502.58,227.59 1499.25,226.68 1495.92,224.87C1488.04,220.63 1480.33,217.15 1472.76,214.43C1465.19,211.71 1455.51,210.34 1443.7,210.34C1417.37,210.34 1396.86,217.91 1382.18,233.04C1367.5,248.18 1360.16,267.85 1360.16,292.07C1360.16,316.29 1367.5,335.96 1382.18,351.1C1396.86,366.24 1417.37,373.8 1443.7,373.8C1455.5,373.8 1465.19,372.37 1472.76,369.49C1480.32,366.62 1488.04,363.21 1495.92,359.27C1499.25,357.45 1502.57,356.55 1505.91,356.55C1510.75,356.55 1514.83,358.52 1518.17,362.45C1521.5,366.39 1523.17,370.47 1523.17,374.71C1523.17,381.37 1520.14,386.67 1514.09,390.6C1506.52,395.45 1496.76,400.29 1484.8,405.13C1472.84,409.96 1457.94,412.38 1440.08,412.38ZM1675.27,412.38C1651.96,412.38 1631.53,407.31 1613.97,397.17C1596.41,387.03 1582.87,372.96 1573.33,354.94C1563.79,336.94 1559.03,315.97 1559.03,292.06C1559.03,268.15 1563.8,247.19 1573.33,229.18C1582.87,211.17 1596.41,197.1 1613.97,186.95C1631.52,176.81 1651.95,171.74 1675.27,171.74C1698.58,171.74 1718.93,176.81 1736.34,186.95C1753.74,197.1 1767.29,211.17 1776.98,229.18C1786.66,247.19 1791.51,268.16 1791.51,292.06C1791.51,315.98 1786.66,336.94 1776.98,354.94C1767.29,372.95 1753.75,387.03 1736.34,397.17C1718.93,407.32 1698.58,412.38 1675.27,412.38ZM1675.27,374.7C1686.77,374.7 1698.27,371.98 1709.78,366.53C1721.28,361.08 1730.89,352.23 1738.61,339.97C1746.33,327.71 1750.19,311.59 1750.19,291.61C1750.19,271.63 1746.33,255.59 1738.61,243.48C1730.89,231.38 1721.28,222.67 1709.78,217.37C1698.27,212.08 1686.77,209.42 1675.27,209.42C1663.76,209.42 1652.19,212.07 1640.54,217.37C1628.88,222.67 1619.27,231.37 1611.71,243.48C1604.14,255.59 1600.36,271.63 1600.36,291.61C1600.36,311.59 1604.14,327.71 1611.71,339.97C1619.27,352.23 1628.89,361.08 1640.54,366.53C1652.19,371.97 1663.77,374.7 1675.27,374.7ZM1928.17,410.11C1922.42,410.11 1917.34,408.44 1912.96,405.11C1908.57,401.78 1905.31,397.85 1903.2,393.31L1824.2,204.43C1822.68,200.8 1821.93,197.62 1821.93,194.9C1821.93,189.15 1823.9,184.23 1827.83,180.14C1831.76,176.05 1836.61,174.01 1842.36,174.01C1846.6,174.01 1850.45,175.15 1853.94,177.42C1857.42,179.69 1859.76,182.49 1860.98,185.82L1930.45,361.99L1999.92,185.82C2001.43,182.49 2003.93,179.69 2007.41,177.42C2010.89,175.15 2014.6,174.01 2018.53,174.01C2024.28,174.01 2029.12,176.05 2033.06,180.14C2036.99,184.23 2038.96,189.15 2038.96,194.9C2038.96,197.62 2038.2,200.8 2036.69,204.43L1957.69,393.31C1955.57,397.85 1952.31,401.79 1947.93,405.11C1943.54,408.44 1938.47,410.11 1932.72,410.11L1928.17,410.11ZM2106.16,129.06C2099.8,129.06 2094.35,126.79 2089.81,122.25C2085.27,117.71 2083,112.26 2083,105.9L2083,104.08C2083,97.72 2085.27,92.28 2089.81,87.74C2094.35,83.2 2099.8,80.93 2106.16,80.93L2108.88,80.93C2115.24,80.93 2120.69,83.2 2125.23,87.74C2129.77,92.28 2132.04,97.73 2132.04,104.08L2132.04,105.9C2132.04,112.26 2129.77,117.71 2125.23,122.25C2120.69,126.79 2115.24,129.06 2108.88,129.06L2106.16,129.06ZM2107.07,410.11C2101.32,410.11 2096.47,408.14 2092.54,404.21C2088.6,400.28 2086.64,395.43 2086.64,389.68L2086.64,194.89C2086.64,188.84 2088.61,183.84 2092.54,179.91C2096.47,175.98 2101.32,174.01 2107.07,174.01C2113.12,174.01 2118.12,175.98 2122.05,179.91C2125.98,183.85 2127.95,188.84 2127.95,194.89L2127.95,389.67C2127.95,395.42 2125.98,400.27 2122.05,404.2C2118.11,408.14 2113.12,410.11 2107.07,410.11ZM2210.59,407.84C2202.71,407.84 2195.98,405.8 2190.38,401.71C2184.78,397.62 2181.98,391.65 2181.98,383.78C2181.98,376.82 2184.4,370.61 2189.24,365.16L2320,214.87L2205.13,214.87C2199.68,214.87 2195.14,213.05 2191.51,209.42C2187.88,205.79 2186.06,201.25 2186.06,195.8C2186.06,190.35 2187.88,185.74 2191.51,181.95C2195.14,178.17 2199.68,176.27 2205.13,176.27L2342.71,176.27C2350.58,176.27 2356.93,178.62 2361.78,183.31C2366.62,188.01 2369.04,194.28 2369.04,202.15C2369.04,209.12 2366.92,215.17 2362.68,220.31L2235.55,369.24L2352.24,369.24C2357.69,369.24 2362.3,371.13 2366.09,374.92C2369.87,378.71 2371.77,383.32 2371.77,388.77C2371.77,394.22 2369.88,398.76 2366.09,402.39C2362.3,406.02 2357.69,407.84 2352.24,407.84L2210.59,407.84Z" style="fill-rule:nonzero;"/>
                <g>
                    <g>
                        <path d="M260.62,6.17C92.91,6.17 -7.36,267.68 31.14,336.06C36.42,345.44 56.35,372.56 88.51,393.43C104.46,403.78 119.54,413.29 131.54,407.77C144.91,401.62 150.83,378.5 145.88,350.4C157.22,357.67 171.92,367.32 188.91,379.09C205.98,390.91 210.9,394.84 217.6,393.43C225.27,391.81 229.19,384.46 246.29,350.4C249.74,343.54 254.67,333.68 260.63,321.71C266.59,333.68 271.53,343.53 274.97,350.4C292.06,384.46 295.99,391.81 303.66,393.43C310.36,394.84 315.28,390.9 332.35,379.09C349.34,367.33 364.04,357.68 375.38,350.4C370.43,378.5 376.36,401.62 389.72,407.77C401.72,413.29 416.8,403.78 432.75,393.43C464.91,372.56 484.84,345.44 490.12,336.06C528.61,267.68 428.34,6.17 260.62,6.17ZM418.39,264.34C411.24,264.4 411.41,237.2 389.7,206.97C381.76,195.91 373.79,184.81 361.01,178.28C330.47,162.68 310.52,192.63 260.61,192.62C210.69,192.62 190.7,162.66 160.21,178.28C147.51,184.79 139.6,195.82 131.61,206.97C109.92,237.24 110.06,264.62 102.92,264.34C95.79,264.06 88.67,241.86 88.58,221.31C88.34,169.14 133.44,131.33 145.86,120.91C157.11,111.48 198.51,77.83 260.6,77.88C322.83,77.93 363.77,111.13 375.43,120.91C387.85,131.33 432.95,169.14 432.71,221.31C432.64,243.02 424.7,264.29 418.39,264.34ZM174.57,422.11C179.57,428.15 184.55,432.85 188.91,436.45C198.34,444.24 206.93,451.33 217.6,450.79C219.22,450.71 223.49,451.08 232,445.34C238.8,440.76 248.83,433.34 260.62,422.1C272.38,433.32 282.39,440.72 289.2,445.32C297.75,451.09 302.05,450.71 303.65,450.79C314.31,451.32 322.9,444.23 332.34,436.45C336.74,432.82 341.71,428.12 346.68,422.11C354.31,429.47 362.27,439.76 361.02,450.8C357.99,477.61 302.34,493.83 260.62,493.83C218.9,493.83 163.25,477.61 160.22,450.8C158.98,439.76 166.94,429.47 174.57,422.11Z" style="fill-rule:nonzero;"/>
                    </g>
                </g>
            </g>
        </g>
    </g>
</svg>
